STARTFONT 2.1
COMMENT  
COMMENT  WARNING:  This bdf file was generated from an X server using
COMMENT  xbdfdump.  The resulting font is subject to the same copyright,
COMMENT  license, and trademark restrictions as the original font.  The
COMMENT  author and distributors of xbdfdump disclaim all liability for
COMMENT  misuse of the program or its output.
COMMENT  
FONT -phaisarn-angsana-bold-i-normal--18-180-75-75-p-75-tis620-0
SIZE 18 75 75
FONTBOUNDINGBOX 42 52 -13 -16
STARTPROPERTIES 27
FOUNDRY "Phaisarn"
FAMILY_NAME "Angsana"
WEIGHT_NAME "bold"
SLANT "i"
SETWIDTH_NAME "normal"
ADD_STYLE_NAME ""
PIXEL_SIZE 18
POINT_SIZE 180
RESOLUTION_X 75
RESOLUTION_Y 75
SPACING "p"
AVERAGE_WIDTH 75
CHARSET_REGISTRY "tis620"
CHARSET_ENCODING "0"
COPYRIGHT "Angsana by Pt-TITech 1997"
RAW_PIXELSIZE 1000
RAW_POINTSIZE 0
RAW_ASCENT 0
RAW_DESCENT 0
RAW_AVERAGE_WIDTH 2994
FACE_NAME "Angsana BoldInclined"
WEIGHT 10
X_HEIGHT 11
QUAD_WIDTH 15
FONT_ASCENT 35
FONT_DESCENT 10
_XMBDFED_INFO "Edited with xmbdfed 4.5."
ENDPROPERTIES
CHARS 195
STARTCHAR space
ENCODING 32
SWIDTH 320 0
DWIDTH 6 0
BBX 0 0 0 0
BITMAP
ENDCHAR
STARTCHAR exclam
ENCODING 33
SWIDTH 480 0
DWIDTH 9 0
BBX 7 16 1 0
BITMAP
06
0E
0E
0C
0C
18
18
18
10
10
10
00
60
F0
F0
60
ENDCHAR
STARTCHAR quotedbl
ENCODING 34
SWIDTH 693 0
DWIDTH 13 0
BBX 10 8 4 8
BITMAP
31C0
73C0
7380
E380
E300
C300
C200
8200
ENDCHAR
STARTCHAR numbersign
ENCODING 35
SWIDTH 640 0
DWIDTH 12 0
BBX 11 16 1 0
BITMAP
0840
08C0
18C0
18C0
1880
FFE0
FFE0
3180
3100
FFE0
FFE0
2300
6300
6300
4200
4200
ENDCHAR
STARTCHAR dollar
ENCODING 36
SWIDTH 640 0
DWIDTH 12 0
BBX 11 19 1 -2
BITMAP
0080
0780
1DE0
1960
3920
3E20
3E00
1E00
0F00
0780
0780
07C0
49C0
49C0
C980
F380
7E00
1000
2000
ENDCHAR
STARTCHAR percent
ENCODING 37
SWIDTH 1066 0
DWIDTH 20 0
BBX 16 17 3 -1
BITMAP
1C03
3406
660C
E608
C610
CE20
CC40
58C0
318C
031A
0233
0473
0873
1067
3066
6024
C038
ENDCHAR
STARTCHAR ampersand
ENCODING 38
SWIDTH 1013 0
DWIDTH 19 0
BBX 16 16 1 0
BITMAP
00E0
0130
0338
0338
0770
0760
0780
07A3
1B9C
3398
73D0
E1E0
F1E0
F0F1
7FFE
3C7C
ENDCHAR
STARTCHAR apostrophe
ENCODING 39
SWIDTH 373 0
DWIDTH 7 0
BBX 4 8 4 8
BITMAP
30
70
E0
E0
E0
C0
80
80
ENDCHAR
STARTCHAR parenleft
ENCODING 40
SWIDTH 426 0
DWIDTH 8 0
BBX 10 21 1 -5
BITMAP
0040
0180
0300
0600
0C00
1C00
3800
7800
7000
7000
F000
F000
E000
E000
E000
6000
6000
6000
3000
1000
1000
ENDCHAR
STARTCHAR parenright
ENCODING 41
SWIDTH 426 0
DWIDTH 8 0
BBX 10 21 -3 -5
BITMAP
0200
0200
0300
0180
0180
0180
01C0
01C0
03C0
03C0
03C0
0380
0380
0780
0700
0E00
0C00
1800
3000
6000
8000
ENDCHAR
STARTCHAR asterisk
ENCODING 42
SWIDTH 640 0
DWIDTH 12 0
BBX 9 9 3 7
BITMAP
1C00
1C00
C980
FF80
0800
1400
3600
6300
6300
ENDCHAR
STARTCHAR plus
ENCODING 43
SWIDTH 746 0
DWIDTH 14 0
BBX 13 12 1 2
BITMAP
0300
0300
0300
0300
0300
FFF8
FFF8
0300
0300
0300
0300
0300
ENDCHAR
STARTCHAR comma
ENCODING 44
SWIDTH 320 0
DWIDTH 6 0
BBX 5 8 -1 -4
BITMAP
30
78
78
38
30
30
60
80
ENDCHAR
STARTCHAR minus
ENCODING 45
SWIDTH 426 0
DWIDTH 8 0
BBX 8 2 0 4
BITMAP
7F
FE
ENDCHAR
STARTCHAR period
ENCODING 46
SWIDTH 320 0
DWIDTH 6 0
BBX 4 4 0 0
BITMAP
60
F0
F0
60
ENDCHAR
STARTCHAR slash
ENCODING 47
SWIDTH 373 0
DWIDTH 7 0
BBX 12 16 -2 0
BITMAP
0030
0060
0040
00C0
0180
0100
0300
0200
0600
0C00
0800
1800
3000
2000
6000
C000
ENDCHAR
STARTCHAR 0
ENCODING 48
SWIDTH 640 0
DWIDTH 12 0
BBX 11 16 1 0
BITMAP
0380
0CC0
1CC0
18E0
38E0
38E0
70E0
71C0
71C0
61C0
E380
E380
E300
6700
6600
3800
ENDCHAR
STARTCHAR 1
ENCODING 49
SWIDTH 640 0
DWIDTH 12 0
BBX 10 16 0 0
BITMAP
01C0
0F80
0380
0380
0380
0700
0700
0700
0E00
0E00
0E00
0C00
1C00
1C00
3C00
FF00
ENDCHAR
STARTCHAR 2
ENCODING 50
SWIDTH 640 0
DWIDTH 12 0
BBX 12 16 0 0
BITMAP
03C0
0FE0
08F0
1070
0070
0060
0060
00C0
0180
0300
0600
0C20
1040
3FC0
7FC0
FF80
ENDCHAR
STARTCHAR 3
ENCODING 51
SWIDTH 640 0
DWIDTH 12 0
BBX 11 16 0 0
BITMAP
07C0
09E0
08E0
00E0
00C0
0380
1F00
0F80
03C0
01C0
01C0
01C0
0180
4300
F600
7C00
ENDCHAR
STARTCHAR 4
ENCODING 52
SWIDTH 640 0
DWIDTH 12 0
BBX 12 16 0 0
BITMAP
0030
0060
00E0
01E0
02C0
05C0
09C0
1180
2380
4380
7FC0
FFC0
FFC0
0700
0700
0E00
ENDCHAR
STARTCHAR 5
ENCODING 53
SWIDTH 640 0
DWIDTH 12 0
BBX 12 16 1 0
BITMAP
07F0
07E0
0FE0
0800
1800
1F00
3F80
0780
03C0
01C0
01C0
0180
0180
4100
F600
7800
ENDCHAR
STARTCHAR 6
ENCODING 54
SWIDTH 640 0
DWIDTH 12 0
BBX 11 16 1 0
BITMAP
0060
0380
0700
0E00
1C00
3800
7F00
7180
71C0
F1C0
E1C0
E3C0
E380
6380
6700
3C00
ENDCHAR
STARTCHAR 7
ENCODING 55
SWIDTH 640 0
DWIDTH 12 0
BBX 11 16 3 0
BITMAP
3FE0
3FC0
7FC0
4080
8100
0100
0200
0600
0400
0800
1800
1000
2000
2000
4000
C000
ENDCHAR
STARTCHAR 8
ENCODING 56
SWIDTH 640 0
DWIDTH 12 0
BBX 11 16 1 0
BITMAP
0700
0CC0
18E0
18E0
18E0
1CC0
1F00
0F00
1F00
7780
6380
E380
E380
E700
6700
1C00
ENDCHAR
STARTCHAR 9
ENCODING 57
SWIDTH 640 0
DWIDTH 12 0
BBX 11 16 1 0
BITMAP
0780
1CC0
38C0
38E0
78E0
70E0
71E0
71C0
31C0
1FC0
0380
0700
0E00
1C00
3800
C000
ENDCHAR
STARTCHAR colon
ENCODING 58
SWIDTH 426 0
DWIDTH 8 0
BBX 6 11 1 0
BITMAP
18
3C
3C
18
00
00
00
60
F0
F0
60
ENDCHAR
STARTCHAR semicolon
ENCODING 59
SWIDTH 426 0
DWIDTH 8 0
BBX 7 15 0 -4
BITMAP
0C
1E
1E
0C
00
00
00
10
78
78
78
30
30
60
80
ENDCHAR
STARTCHAR less
ENCODING 60
SWIDTH 746 0
DWIDTH 14 0
BBX 13 12 1 2
BITMAP
0008
0078
01E0
0780
1C00
F000
F000
3C00
0780
01E0
0078
0008
ENDCHAR
STARTCHAR equal
ENCODING 61
SWIDTH 746 0
DWIDTH 14 0
BBX 13 6 1 5
BITMAP
FFF8
FFF8
0000
0000
FFF8
FFF8
ENDCHAR
STARTCHAR greater
ENCODING 62
SWIDTH 746 0
DWIDTH 14 0
BBX 13 12 1 2
BITMAP
8000
F000
3C00
0F00
01E0
0078
0078
01C0
0F00
3C00
F000
8000
ENDCHAR
STARTCHAR question
ENCODING 63
SWIDTH 640 0
DWIDTH 12 0
BBX 9 16 2 0
BITMAP
1C00
3300
7380
7380
3380
0700
0E00
0C00
1000
2000
2000
0000
6000
F000
F000
6000
ENDCHAR
STARTCHAR at
ENCODING 64
SWIDTH 1066 0
DWIDTH 20 0
BBX 21 21 0 -5
BITMAP
00FC00
030300
0C00C0
180040
300020
607610
40DE10
418E10
C19E10
839C10
839C30
873C20
873820
877840
47B988
431E10
200010
300060
080080
070700
00F800
ENDCHAR
STARTCHAR A
ENCODING 65
SWIDTH 853 0
DWIDTH 16 0
BBX 16 16 -2 0
BITMAP
0001
0002
0006
000E
001E
003E
006E
00CE
008E
010E
03FE
040E
080E
100E
301E
F83F
ENDCHAR
STARTCHAR B
ENCODING 66
SWIDTH 853 0
DWIDTH 16 0
BBX 16 16 -1 0
BITMAP
0FFC
039F
038F
038F
078F
071E
073C
0FE0
0E38
0E1C
0E1E
1E1E
1C3E
1C3C
3C78
FFC0
ENDCHAR
STARTCHAR C
ENCODING 67
SWIDTH 853 0
DWIDTH 16 0
BBX 15 16 2 0
BITMAP
01FE
070E
1E04
3C04
7800
7800
7800
F800
F000
F000
F000
F000
7808
7810
3C60
0F80
ENDCHAR
STARTCHAR D
ENCODING 68
SWIDTH 906 0
DWIDTH 17 0
BBX 18 16 -1 0
BITMAP
0FFC00
03CF00
03C780
038380
0783C0
0783C0
0703C0
0703C0
0F0780
0F0780
0E0780
1E0F00
1E0E00
1C1C00
3FF000
FFC000
ENDCHAR
STARTCHAR E
ENCODING 69
SWIDTH 853 0
DWIDTH 16 0
BBX 17 16 -1 0
BITMAP
0FFF80
03C300
038100
038100
078400
078400
071800
07F800
0F1800
0E0800
0E0800
1E0000
1E0200
1C0400
3C3C00
FFFC00
ENDCHAR
STARTCHAR F
ENCODING 70
SWIDTH 853 0
DWIDTH 16 0
BBX 18 16 0 0
BITMAP
07FFC0
03C180
03C080
038080
038400
078400
071800
07F800
0F0800
0F0800
0E0000
1E0000
1E0000
1C0000
3E0000
FF0000
ENDCHAR
STARTCHAR G
ENCODING 71
SWIDTH 906 0
DWIDTH 17 0
BBX 16 16 2 0
BITMAP
01FF
078F
0E02
1C02
3C02
7800
7800
F800
F07E
F03C
F038
F038
7078
7870
1C70
07C0
ENDCHAR
STARTCHAR H
ENCODING 72
SWIDTH 1013 0
DWIDTH 19 0
BBX 22 16 -1 0
BITMAP
0FF3FC
03C1F0
03C1E0
0381E0
0781C0
0781C0
0703C0
07FFC0
0F0380
0E0780
0E0780
1E0700
1E0F00
1C0F00
3C1F00
FF3F80
ENDCHAR
STARTCHAR I
ENCODING 73
SWIDTH 480 0
DWIDTH 9 0
BBX 12 16 -1 0
BITMAP
0FF0
03C0
03C0
0380
0780
0780
0700
0F00
0F00
0E00
0E00
1E00
1C00
1C00
3C00
FF00
ENDCHAR
STARTCHAR J
ENCODING 74
SWIDTH 640 0
DWIDTH 12 0
BBX 15 16 0 0
BITMAP
01FE
00F8
00F0
00F0
00E0
01E0
01E0
01E0
01C0
03C0
03C0
0380
E780
E700
CE00
3800
ENDCHAR
STARTCHAR K
ENCODING 75
SWIDTH 853 0
DWIDTH 16 0
BBX 19 16 -1 0
BITMAP
0FF7E0
03C380
03C200
038400
039800
07B000
076000
07F000
0F7000
0E7000
0E7800
1E3800
1E3C00
1C3C00
3E3E00
FF7F00
ENDCHAR
STARTCHAR L
ENCODING 76
SWIDTH 800 0
DWIDTH 15 0
BBX 15 16 -1 0
BITMAP
0FF0
03C0
03C0
0380
0380
0780
0780
0700
0F00
0F00
0E00
1E02
1E02
1E0C
3C3C
FFF8
ENDCHAR
STARTCHAR M
ENCODING 77
SWIDTH 1120 0
DWIDTH 21 0
BBX 25 16 -1 0
BITMAP
0FC01F80
03C03E00
03E07C00
03E07C00
03E0B800
05E1B800
04E17800
04E27800
08E47000
08ECF000
08E8F000
10F0E000
10F1E000
10E1E000
30C3E000
FC4FF000
ENDCHAR
STARTCHAR N
ENCODING 78
SWIDTH 906 0
DWIDTH 17 0
BBX 21 16 -1 0
BITMAP
0FC0F8
03C060
03E040
03E040
02F040
04F080
047880
047880
083D00
083D00
081F00
101E00
100E00
100E00
300600
FC0400
ENDCHAR
STARTCHAR O
ENCODING 79
SWIDTH 906 0
DWIDTH 17 0
BBX 16 16 1 0
BITMAP
00F0
031C
0E0E
1C0E
3C0F
380F
780F
781F
F81E
F01E
F01C
F03C
F038
7070
39C0
0F00
ENDCHAR
STARTCHAR P
ENCODING 80
SWIDTH 800 0
DWIDTH 15 0
BBX 16 16 -1 0
BITMAP
0FF8
039E
038F
078F
070F
071F
071E
0F3C
0FF0
0E00
1E00
1C00
1C00
1C00
3C00
FF00
ENDCHAR
STARTCHAR Q
ENCODING 81
SWIDTH 906 0
DWIDTH 17 0
BBX 16 21 1 -5
BITMAP
00F0
031C
0E0E
1E0E
1C0F
3C0F
780F
780F
F81E
F01E
F01C
F03C
F038
7070
78E0
3F80
0400
0800
3F02
7FFC
87E0
ENDCHAR
STARTCHAR R
ENCODING 82
SWIDTH 853 0
DWIDTH 16 0
BBX 16 16 -1 0
BITMAP
0FFC
039E
038F
078F
078F
070F
071E
0F3C
0FF0
0EF0
0E70
1E70
1C78
1C38
3C3C
FF3E
ENDCHAR
STARTCHAR S
ENCODING 83
SWIDTH 693 0
DWIDTH 13 0
BBX 15 16 -1 0
BITMAP
03FE
078E
0E04
0E04
0F04
0F80
07C0
07E0
03F0
00F8
2078
6038
6038
6030
78F0
FFE0
ENDCHAR
STARTCHAR T
ENCODING 84
SWIDTH 800 0
DWIDTH 15 0
BBX 15 16 2 0
BITMAP
3FFE
3BCC
63C4
4384
0380
0780
0700
0700
0F00
0F00
0E00
1E00
1E00
1C00
3E00
FF00
ENDCHAR
STARTCHAR U
ENCODING 85
SWIDTH 906 0
DWIDTH 17 0
BBX 17 16 2 0
BITMAP
7F1F80
3E0600
3C0400
3C0400
380400
380800
780800
700800
700800
701000
E01000
E01000
E02000
E04000
70C000
3F0000
ENDCHAR
STARTCHAR V
ENCODING 86
SWIDTH 853 0
DWIDTH 16 0
BBX 16 16 3 0
BITMAP
FC1F
780E
780C
7018
7010
7020
7040
7080
7100
7200
7400
7800
7800
7000
6000
4000
ENDCHAR
STARTCHAR W
ENCODING 87
SWIDTH 1120 0
DWIDTH 21 0
BBX 21 16 3 0
BITMAP
FEFC78
787830
787820
787840
787080
70F080
717100
737200
727400
747400
F8F800
F0F000
E0E000
E0E000
C0C000
808000
ENDCHAR
STARTCHAR X
ENCODING 88
SWIDTH 853 0
DWIDTH 16 0
BBX 20 16 -2 0
BITMAP
0FE1F0
07C0E0
03C180
03C100
01E200
01EC00
00F000
00F000
007000
00F800
013800
063C00
0C1C00
181E00
381F00
FC3F80
ENDCHAR
STARTCHAR Y
ENCODING 89
SWIDTH 800 0
DWIDTH 15 0
BBX 15 16 2 0
BITMAP
7F3E
3E1C
3C18
1C10
1E20
1E40
0E40
0E80
0F00
0E00
0E00
1E00
1E00
1C00
3C00
FF00
ENDCHAR
STARTCHAR Z
ENCODING 90
SWIDTH 800 0
DWIDTH 15 0
BBX 17 16 -1 0
BITMAP
07FF80
070F00
081E00
083C00
007C00
00F800
00F000
01E000
03C000
078000
0F8000
1F0400
1E0400
3C1800
787800
FFF000
ENDCHAR
STARTCHAR bracketleft
ENCODING 91
SWIDTH 426 0
DWIDTH 8 0
BBX 11 20 -1 -4
BITMAP
03E0
0780
0700
0700
0600
0E00
0E00
0C00
1C00
1C00
1C00
1800
3800
3800
3000
7000
7000
6000
6000
F800
ENDCHAR
STARTCHAR backslash
ENCODING 92
SWIDTH 373 0
DWIDTH 7 0
BBX 3 16 2 0
BITMAP
80
80
80
80
80
C0
C0
C0
C0
40
40
40
60
60
60
60
ENDCHAR
STARTCHAR bracketright
ENCODING 93
SWIDTH 426 0
DWIDTH 8 0
BBX 11 20 -3 -4
BITMAP
03E0
00C0
00C0
01C0
01C0
0180
0380
0380
0300
0700
0700
0700
0600
0E00
0E00
0C00
1C00
1C00
3C00
F800
ENDCHAR
STARTCHAR asciicircum
ENCODING 94
SWIDTH 746 0
DWIDTH 14 0
BBX 11 8 2 8
BITMAP
0400
0E00
0B00
1B00
3180
3180
60C0
C060
ENDCHAR
STARTCHAR underscore
ENCODING 95
SWIDTH 640 0
DWIDTH 12 0
BBX 13 2 -2 -5
BITMAP
FFF8
FFF8
ENDCHAR
STARTCHAR grave
ENCODING 96
SWIDTH 426 0
DWIDTH 8 0
BBX 5 4 3 12
BITMAP
F0
30
10
18
ENDCHAR
STARTCHAR a
ENCODING 97
SWIDTH 640 0
DWIDTH 12 0
BBX 11 11 0 0
BITMAP
06E0
19C0
39C0
31C0
71C0
7380
E380
E780
EB20
FFC0
6300
ENDCHAR
STARTCHAR b
ENCODING 98
SWIDTH 640 0
DWIDTH 12 0
BBX 11 16 0 0
BITMAP
1E00
0E00
0E00
0C00
1C00
1C80
1FC0
3CE0
38E0
38E0
70E0
71C0
71C0
E380
E700
3C00
ENDCHAR
STARTCHAR c
ENCODING 99
SWIDTH 586 0
DWIDTH 11 0
BBX 9 11 1 0
BITMAP
0700
0980
3380
7300
6000
E000
E000
E000
E100
FE00
7800
ENDCHAR
STARTCHAR d
ENCODING 100
SWIDTH 640 0
DWIDTH 12 0
BBX 13 16 0 0
BITMAP
00F8
0070
0070
0070
00E0
06E0
1DE0
39C0
31C0
71C0
71C0
E380
E780
E7A0
FBC0
6300
ENDCHAR
STARTCHAR e
ENCODING 101
SWIDTH 586 0
DWIDTH 11 0
BBX 10 11 1 0
BITMAP
0380
0DC0
19C0
3380
7300
6E00
F000
E000
E180
7E00
3800
ENDCHAR
STARTCHAR f
ENCODING 102
SWIDTH 426 0
DWIDTH 8 0
BBX 16 21 -4 -5
BITMAP
000E
001B
0033
0060
00E0
03F0
01C0
01C0
01C0
01C0
0380
0380
0380
0380
0300
0700
0700
0600
0600
EC00
7000
ENDCHAR
STARTCHAR g
ENCODING 103
SWIDTH 640 0
DWIDTH 12 0
BBX 13 16 -1 -5
BITMAP
0780
1CF8
3CE0
38F0
39E0
19C0
0F80
3000
3800
3F00
3F80
67C0
C1C0
C1C0
6300
3E00
ENDCHAR
STARTCHAR h
ENCODING 104
SWIDTH 693 0
DWIDTH 13 0
BBX 12 16 0 0
BITMAP
1F00
0E00
0E00
0E00
0C00
1C60
1CF0
19F0
3AE0
3CE0
38E0
78C0
71C0
71D0
61E0
E1C0
ENDCHAR
STARTCHAR i
ENCODING 105
SWIDTH 373 0
DWIDTH 7 0
BBX 7 16 0 0
BITMAP
0E
0E
0E
00
00
7C
1C
18
38
38
38
70
70
74
F8
70
ENDCHAR
STARTCHAR j
ENCODING 106
SWIDTH 373 0
DWIDTH 7 0
BBX 11 21 -4 -5
BITMAP
00E0
00E0
00E0
0000
0000
03C0
01C0
01C0
01C0
0180
0380
0380
0380
0700
0700
0700
0700
0E00
0E00
EC00
7000
ENDCHAR
STARTCHAR k
ENCODING 107
SWIDTH 640 0
DWIDTH 12 0
BBX 13 16 0 0
BITMAP
1F00
0F00
0E00
0E00
0E00
1C98
1C60
1C40
3D80
3B80
3F80
3B80
7380
73D0
71E0
E1C0
ENDCHAR
STARTCHAR l
ENCODING 108
SWIDTH 373 0
DWIDTH 7 0
BBX 8 16 0 0
BITMAP
1F
0E
0E
0E
1C
1C
1C
38
38
38
70
70
70
F4
F8
70
ENDCHAR
STARTCHAR m
ENCODING 109
SWIDTH 1013 0
DWIDTH 19 0
BBX 17 11 0 0
BITMAP
3CE300
5DE780
3AEB80
3AF700
3CD700
39E700
71C700
71CE00
738E80
638F00
E38E00
ENDCHAR
STARTCHAR n
ENCODING 110
SWIDTH 693 0
DWIDTH 13 0
BBX 12 11 0 0
BITMAP
3C60
1DF0
1970
3AE0
3CE0
38E0
79C0
71C0
71D0
61E0
E1C0
ENDCHAR
STARTCHAR o
ENCODING 111
SWIDTH 640 0
DWIDTH 12 0
BBX 10 11 1 0
BITMAP
0700
0980
39C0
31C0
71C0
73C0
E380
E300
E700
6400
3800
ENDCHAR
STARTCHAR p
ENCODING 112
SWIDTH 640 0
DWIDTH 12 0
BBX 14 16 -3 -5
BITMAP
0FB8
07FC
071C
071C
071C
0E18
0E38
0E30
0C70
1EE0
1F80
1C00
3800
3800
7800
FC00
ENDCHAR
STARTCHAR q
ENCODING 113
SWIDTH 640 0
DWIDTH 12 0
BBX 11 16 0 -5
BITMAP
06E0
19E0
39C0
31C0
71C0
7380
E380
E780
E780
FF00
7700
0700
0600
0E00
0E00
3F00
ENDCHAR
STARTCHAR r
ENCODING 114
SWIDTH 480 0
DWIDTH 9 0
BBX 10 11 0 0
BITMAP
3CC0
1DC0
1BC0
1A80
3C00
3C00
3800
7800
7000
7000
F000
ENDCHAR
STARTCHAR s
ENCODING 115
SWIDTH 480 0
DWIDTH 9 0
BBX 9 11 0 0
BITMAP
0E80
1980
3180
3880
3C00
1E00
0E00
4700
C600
E600
B800
ENDCHAR
STARTCHAR t
ENCODING 116
SWIDTH 373 0
DWIDTH 7 0
BBX 7 14 0 0
BITMAP
04
0C
1C
7E
38
38
70
70
70
70
E0
E8
F0
E0
ENDCHAR
STARTCHAR u
ENCODING 117
SWIDTH 693 0
DWIDTH 13 0
BBX 12 11 1 0
BITMAP
7C70
3860
38E0
38E0
71E0
71C0
73C0
75C0
EBA0
F3C0
6180
ENDCHAR
STARTCHAR v
ENCODING 118
SWIDTH 586 0
DWIDTH 11 0
BBX 11 11 0 0
BITMAP
38E0
F8E0
38E0
3860
3C40
3C80
1D80
1F00
1C00
1800
1000
ENDCHAR
STARTCHAR w
ENCODING 119
SWIDTH 853 0
DWIDTH 16 0
BBX 16 11 0 0
BITMAP
3847
F847
38E7
39E3
3AE2
3AE4
3CE4
38E8
30F0
20E0
2080
ENDCHAR
STARTCHAR x
ENCODING 120
SWIDTH 640 0
DWIDTH 12 0
BBX 14 11 -1 0
BITMAP
3C18
0E7C
0E80
0F00
0700
0700
0780
0B88
F3D0
E3E0
C1C0
ENDCHAR
STARTCHAR y
ENCODING 121
SWIDTH 586 0
DWIDTH 11 0
BBX 13 16 -2 -5
BITMAP
0C38
3E38
0E18
0E18
0E10
0E10
0620
0640
0680
0700
0700
0600
0400
C800
F000
E000
ENDCHAR
STARTCHAR z
ENCODING 122
SWIDTH 480 0
DWIDTH 9 0
BBX 10 13 0 -2
BITMAP
3FC0
3F80
2300
0600
0400
0800
1000
2000
3100
7B80
BB80
1B00
0E00
ENDCHAR
STARTCHAR braceleft
ENCODING 123
SWIDTH 426 0
DWIDTH 8 0
BBX 10 21 1 -5
BITMAP
00C0
0300
0600
0E00
0E00
0E00
0E00
0C00
1800
3000
C000
2000
3000
3000
7000
6000
E000
C000
C000
C000
7000
ENDCHAR
STARTCHAR bar
ENCODING 124
SWIDTH 266 0
DWIDTH 5 0
BBX 2 21 2 -5
BITMAP
C0
C0
C0
C0
C0
C0
C0
C0
C0
C0
C0
C0
C0
C0
C0
C0
C0
C0
C0
C0
C0
ENDCHAR
STARTCHAR braceright
ENCODING 125
SWIDTH 426 0
DWIDTH 8 0
BBX 10 21 -2 -5
BITMAP
0380
00C0
00C0
00C0
0180
0180
0380
0300
0300
0100
00C0
0300
0600
0C00
1C00
1C00
1C00
1C00
1800
3000
C000
ENDCHAR
STARTCHAR asciitilde
ENCODING 126
SWIDTH 746 0
DWIDTH 14 0
BBX 13 3 0 5
BITMAP
7808
7FE8
80F0
ENDCHAR
STARTCHAR C001122
ENCODING 133
SWIDTH 1280 0
DWIDTH 24 0
BBX 20 4 2 0
BITMAP
606060
F0F0F0
F0F0F0
606060
ENDCHAR
STARTCHAR C001107
ENCODING 145
SWIDTH 426 0
DWIDTH 8 0
BBX 5 7 3 9
BITMAP
18
20
40
E0
F0
F0
60
ENDCHAR
STARTCHAR C001110
ENCODING 146
SWIDTH 426 0
DWIDTH 8 0
BBX 5 7 3 9
BITMAP
30
78
78
38
10
20
C0
ENDCHAR
STARTCHAR C001113
ENCODING 147
SWIDTH 640 0
DWIDTH 12 0
BBX 10 7 3 9
BITMAP
18C0
2100
4300
6700
F780
F780
6300
ENDCHAR
STARTCHAR C001114
ENCODING 148
SWIDTH 640 0
DWIDTH 12 0
BBX 10 7 3 9
BITMAP
3180
7BC0
7BC0
3980
3080
2100
C600
ENDCHAR
STARTCHAR C001121
ENCODING 149
SWIDTH 426 0
DWIDTH 8 0
BBX 7 7 1 5
BITMAP
38
7C
FE
FE
FE
7C
38
ENDCHAR
STARTCHAR C001103
ENCODING 150
SWIDTH 640 0
DWIDTH 12 0
BBX 13 1 0 5
BITMAP
FFF8
ENDCHAR
STARTCHAR C001104
ENCODING 151
SWIDTH 1280 0
DWIDTH 24 0
BBX 25 1 0 5
BITMAP
FFFFFF80
ENDCHAR
STARTCHAR exclamdown
ENCODING 161
SWIDTH 746 0
DWIDTH 14 0
BBX 13 15 1 0
BITMAP
07C0
1FE0
38F0
2038
7E38
3838
3838
3838
7870
7070
7070
7070
7070
70E0
E0C0
ENDCHAR
STARTCHAR cent
ENCODING 162
SWIDTH 800 0
DWIDTH 15 0
BBX 14 15 2 0
BITMAP
3C0C
7F1C
4738
E738
9738
9738
6E78
0E70
0E70
0E70
0E70
1E70
1CE0
0EE0
0780
ENDCHAR
STARTCHAR sterling
ENCODING 163
SWIDTH 906 0
DWIDTH 17 0
BBX 15 15 2 0
BITMAP
1306
338E
7F8C
DDDC
CB9C
839C
9B9C
9B9C
7398
0338
0738
0738
0738
0370
01C0
ENDCHAR
STARTCHAR currency
ENCODING 164
SWIDTH 800 0
DWIDTH 15 0
BBX 13 15 1 0
BITMAP
07C0
1FF0
39F0
6078
5E38
7938
7138
7338
7E70
7070
7070
7070
7070
E060
E0E0
ENDCHAR
STARTCHAR yen
ENCODING 165
SWIDTH 800 0
DWIDTH 15 0
BBX 14 15 1 0
BITMAP
0E70
1FF8
33BC
611C
401C
5E1C
5938
7138
7238
7E38
7038
7030
7070
E070
E070
ENDCHAR
STARTCHAR brokenbar
ENCODING 166
SWIDTH 960 0
DWIDTH 18 0
BBX 17 15 2 0
BITMAP
220180
678300
7F8700
FB8700
938700
838700
A70F00
E70E00
670E00
070E00
3FCE00
6FFE00
4E1C00
4E1C00
380C00
ENDCHAR
STARTCHAR section
ENCODING 167
SWIDTH 640 0
DWIDTH 12 0
BBX 10 15 1 0
BITMAP
0300
0780
08C0
08C0
09C0
07C0
01C0
8180
C380
6380
3380
1B80
1F00
0F00
0700
ENDCHAR
STARTCHAR diaeresis
ENCODING 168
SWIDTH 746 0
DWIDTH 14 0
BBX 11 15 2 0
BITMAP
0F00
3FC0
71C0
01E0
78E0
D8E0
8CE0
9CE0
78C0
19C0
39C0
39C0
39C0
3B80
1F00
ENDCHAR
STARTCHAR copyright
ENCODING 169
SWIDTH 853 0
DWIDTH 16 0
BBX 12 15 2 0
BITMAP
0380
1FE0
20F0
3070
5870
8870
9860
7860
38E0
38E0
3BC0
3FE0
3920
71A0
71C0
ENDCHAR
STARTCHAR ordfeminine
ENCODING 170
SWIDTH 800 0
DWIDTH 15 0
BBX 13 15 2 0
BITMAP
3838
7C30
4E70
AEE0
AFC0
ECC0
DCC0
1CC0
1CC0
1DC0
1DC0
1980
3B80
3F00
7E00
ENDCHAR
STARTCHAR guillemotleft
ENCODING 171
SWIDTH 906 0
DWIDTH 17 0
BBX 16 15 2 0
BITMAP
1387
338E
3F8E
6DDC
CBF8
C3B8
CB98
7BB8
73B8
0338
0738
0738
0770
0FE0
0FC0
ENDCHAR
STARTCHAR notsign
ENCODING 172
SWIDTH 1013 0
DWIDTH 19 0
BBX 18 15 1 0
BITMAP
0780C0
1FE1C0
38F180
607380
FE7380
387380
387380
786380
70E300
70F700
71FF00
C9EF00
8AE700
92C700
718200
ENDCHAR
STARTCHAR hyphen
ENCODING 173
SWIDTH 1066 0
DWIDTH 20 0
BBX 18 22 2 -7
BITMAP
0F80C0
3FC1C0
71E380
40E380
FCE380
70E380
70E380
60E380
60E700
E0C700
F9C700
C5C700
C4CE00
CCFE00
707800
000000
018E00
03CC00
039C00
023C00
01F800
00E000
ENDCHAR
STARTCHAR registered
ENCODING 174
SWIDTH 853 0
DWIDTH 16 0
BBX 15 22 1 -7
BITMAP
01F0
063C
0C1E
080E
1F8E
0E0E
0E0E
0E1C
0E1C
3C1C
5C1C
8C1C
9C1C
F8B8
7138
0238
0F38
37B8
25B0
24F0
38F0
0070
ENDCHAR
STARTCHAR macron
ENCODING 175
SWIDTH 853 0
DWIDTH 16 0
BBX 16 22 0 -7
BITMAP
00FC
071E
040F
0C07
1FC7
0F07
0F07
0E0E
0E0E
0E0E
3E0E
5E0E
9C0E
781C
321C
041C
081C
781C
5C38
5FF8
6638
0038
ENDCHAR
STARTCHAR degree
ENCODING 176
SWIDTH 746 0
DWIDTH 14 0
BBX 14 22 0 -7
BITMAP
0384
0FF8
18F0
1780
1FE0
20F0
3C70
6670
4670
4E60
3E60
1EE0
1EE0
1FE0
0780
0D80
3AC0
7A40
9FC0
ADC0
EDC0
0F80
ENDCHAR
STARTCHAR plusminus
ENCODING 177
SWIDTH 1013 0
DWIDTH 19 0
BBX 17 15 2 0
BITMAP
130700
379F80
7F9380
DBB380
8BE380
8BE380
93C780
F7C700
678700
078700
078700
070700
0F0E00
0E0E00
0E0E00
ENDCHAR
STARTCHAR twosuperior
ENCODING 178
SWIDTH 1120 0
DWIDTH 21 0
BBX 18 15 2 0
BITMAP
0880C0
1DC1C0
36E380
667380
E27380
EE7380
F6E380
F6E380
66E700
6CE700
79FF00
71FF00
E3CF00
E3C600
E18600
ENDCHAR
STARTCHAR threesuperior
ENCODING 179
SWIDTH 1066 0
DWIDTH 20 0
BBX 18 15 2 0
BITMAP
0F8040
3FC0C0
61E180
C0E180
FCF380
70E380
70E380
60E380
E0E300
E0E300
F9DF00
E5FD00
C5E900
CDCD00
31C600
ENDCHAR
STARTCHAR acute
ENCODING 180
SWIDTH 800 0
DWIDTH 15 0
BBX 13 15 1 0
BITMAP
07C0
1FF0
3878
6038
4038
CE38
CB38
DB70
C670
EC70
7870
F070
E070
E0E0
E0E0
ENDCHAR
STARTCHAR mu
ENCODING 181
SWIDTH 800 0
DWIDTH 15 0
BBX 14 15 1 0
BITMAP
0CE0
1FF8
3338
723C
703C
6638
EF38
EB38
E238
E678
7C70
7870
7070
E070
E0F0
ENDCHAR
STARTCHAR paragraph
ENCODING 182
SWIDTH 800 0
DWIDTH 15 0
BBX 12 15 2 0
BITMAP
0F80
3FE0
60E0
C070
FC70
7070
70E0
60E0
E0E0
E0E0
F8E0
E4E0
C5C0
C9C0
7180
ENDCHAR
STARTCHAR periodcentered
ENCODING 183
SWIDTH 853 0
DWIDTH 16 0
BBX 14 15 2 0
BITMAP
3878
5CF8
8DBC
9D1C
7F1C
1E18
3E38
3E38
3C38
3C38
3C38
3830
7870
7070
7070
ENDCHAR
STARTCHAR cedilla
ENCODING 184
SWIDTH 746 0
DWIDTH 14 0
BBX 14 15 1 0
BITMAP
0F04
1FF8
2CF0
3E00
7F80
0FF0
0E70
1E70
1C70
1C70
1CF0
1CE0
1CE0
1CE0
FFC0
ENDCHAR
STARTCHAR onesuperior
ENCODING 185
SWIDTH 906 0
DWIDTH 17 0
BBX 15 15 2 0
BITMAP
3806
C80C
8C1C
9C1C
7C1C
1C3C
183C
3838
3838
3838
3BF0
3C78
3888
7090
7060
ENDCHAR
STARTCHAR masculine
ENCODING 186
SWIDTH 853 0
DWIDTH 16 0
BBX 15 15 2 0
BITMAP
380E
4C1C
8C1C
9C1C
7C1C
1C1C
383C
3838
3838
3838
3838
3878
7070
FFF0
FFC0
ENDCHAR
STARTCHAR guillemotright
ENCODING 187
SWIDTH 853 0
DWIDTH 16 0
BBX 16 24 2 0
BITMAP
0003
0007
000E
000E
000E
000E
000E
000E
001C
381C
5C1C
8C1C
9C1C
7C18
1838
3838
3838
3838
3838
3870
3070
7070
70E0
FFC0
ENDCHAR
STARTCHAR onequarter
ENCODING 188
SWIDTH 800 0
DWIDTH 15 0
BBX 16 15 0 0
BITMAP
0F07
190F
198E
390E
3E0E
388E
398E
399C
72DC
745C
7C7C
783C
7038
E038
E030
ENDCHAR
STARTCHAR onehalf
ENCODING 189
SWIDTH 800 0
DWIDTH 15 0
BBX 17 24 0 0
BITMAP
000180
000380
000700
000700
000700
000700
000700
000700
000E00
0F0E00
190E00
390E00
390E00
3E0E00
389C00
399C00
739C00
729C00
74DC00
785800
787800
703800
E03000
E02000
ENDCHAR
STARTCHAR threequarters
ENCODING 190
SWIDTH 960 0
DWIDTH 18 0
BBX 16 15 2 0
BITMAP
3847
4C47
8CE6
9CAE
7D2E
1D2E
1B2E
3A2E
3E2C
3C3C
3C3C
383C
383C
783C
7038
ENDCHAR
STARTCHAR questiondown
ENCODING 191
SWIDTH 960 0
DWIDTH 18 0
BBX 18 24 2 0
BITMAP
0000C0
0001C0
000380
000380
000380
000380
000380
000300
000700
384700
C86700
8CA700
9CA700
7D2600
1D2E00
3B2E00
3A2E00
3E2E00
3C3E00
3C3C00
383C00
783C00
781C00
701C00
ENDCHAR
STARTCHAR Agrave
ENCODING 192
SWIDTH 853 0
DWIDTH 16 0
BBX 15 15 0 0
BITMAP
01F0
03F8
061C
080E
1F8E
0E0E
0E1C
0E1C
0E1C
1C1C
7C1C
CC1C
8C38
9838
7030
ENDCHAR
STARTCHAR Aacute
ENCODING 193
SWIDTH 853 0
DWIDTH 16 0
BBX 15 15 1 0
BITMAP
1E06
6F0E
470E
4F0C
3F0C
0E1C
0E1C
0E1C
1E1C
3F1C
5F98
DCD8
9CF8
D878
7030
ENDCHAR
STARTCHAR Acircumflex
ENCODING 194
SWIDTH 746 0
DWIDTH 14 0
BBX 14 15 0 0
BITMAP
0E0C
3938
3138
3338
3E38
7078
3078
3C70
3C70
7070
E070
E0F0
E0E0
F1E0
7FC0
ENDCHAR
STARTCHAR Atilde
ENCODING 195
SWIDTH 693 0
DWIDTH 13 0
BBX 12 15 2 0
BITMAP
0E30
3FC0
6380
F000
FE00
0780
0380
0380
0380
0700
1F00
2700
2300
2700
1E00
ENDCHAR
STARTCHAR Adiaeresis
ENCODING 196
SWIDTH 746 0
DWIDTH 14 0
BBX 12 23 2 -8
BITMAP
0F80
3FC0
60E0
C0F0
FC70
7070
70E0
60E0
E0E0
E0E0
F8E0
E4C0
C5C0
CDC0
79C0
01C0
01C0
0380
0380
0380
0380
0380
0380
ENDCHAR
STARTCHAR Aring
ENCODING 197
SWIDTH 746 0
DWIDTH 14 0
BBX 11 15 2 0
BITMAP
1F80
61C0
40E0
0FE0
39E0
71E0
70C0
70C0
71C0
61C0
F9C0
E5C0
C5C0
4580
7980
ENDCHAR
STARTCHAR AE
ENCODING 198
SWIDTH 853 0
DWIDTH 16 0
BBX 15 23 0 -8
BITMAP
01F0
03FC
061E
080E
1F8E
0E0E
0E0E
0E1C
0E1C
0E1C
7C1C
CC1C
8C1C
9838
7038
0038
0038
0038
0030
0070
0070
0070
0070
ENDCHAR
STARTCHAR Ccedilla
ENCODING 199
SWIDTH 693 0
DWIDTH 13 0
BBX 11 15 2 0
BITMAP
1F80
61C0
C0E0
00E0
00E0
00C0
01C0
01C0
01C0
01C0
0FC0
1BC0
1180
1380
0E00
ENDCHAR
STARTCHAR Egrave
ENCODING 200
SWIDTH 800 0
DWIDTH 15 0
BBX 14 15 1 0
BITMAP
078C
1FF8
30F8
6070
4E70
F3F0
7170
7270
7C70
7070
70E0
70E0
70E0
E0E0
E0E0
ENDCHAR
STARTCHAR Eacute
ENCODING 201
SWIDTH 853 0
DWIDTH 16 0
BBX 15 15 2 0
BITMAP
7806
CC0C
8C1C
9C1C
7C1C
1C1C
3FBC
3CB8
3C78
3FB8
3838
3838
7070
7070
FFE0
ENDCHAR
STARTCHAR Ecircumflex
ENCODING 202
SWIDTH 800 0
DWIDTH 15 0
BBX 15 15 2 0
BITMAP
1F8E
73DC
C0F0
0EE0
39E0
71E0
70E0
71C0
61C0
E1C0
F9C0
C5C0
CD80
7980
7180
ENDCHAR
STARTCHAR Ediaeresis
ENCODING 203
SWIDTH 906 0
DWIDTH 17 0
BBX 15 15 2 0
BITMAP
381C
CC12
8C22
8C24
5C3C
7C78
1D98
1F1C
3E38
3C38
3838
3838
3838
7038
7070
ENDCHAR
STARTCHAR Igrave
ENCODING 204
SWIDTH 1120 0
DWIDTH 21 0
BBX 19 15 2 0
BITMAP
382CE0
4C53C0
8C5380
9CFF00
7CE700
1D2600
1D2E00
3B2E00
3A3E00
3E3E00
3C3E00
3C3C00
381C00
781C00
701C00
ENDCHAR
STARTCHAR Iacute
ENCODING 205
SWIDTH 746 0
DWIDTH 14 0
BBX 12 15 1 0
BITMAP
0FC0
30E0
40F0
1E70
3270
7270
7270
7670
78E0
F0E0
E0E0
E0E0
E0C0
61C0
1E00
ENDCHAR
STARTCHAR Icircumflex
ENCODING 206
SWIDTH 746 0
DWIDTH 14 0
BBX 14 15 0 0
BITMAP
07DC
18F8
2070
30F0
1FF8
0070
1C70
7270
6270
6470
F8E0
E0E0
60C0
61C0
1F00
ENDCHAR
STARTCHAR Idiaeresis
ENCODING 207
SWIDTH 853 0
DWIDTH 16 0
BBX 13 15 3 0
BITMAP
00F8
01F8
0170
3970
7B70
C270
C670
CC70
7860
00E0
00E0
00E0
00E0
00E0
00C0
ENDCHAR
STARTCHAR ETH
ENCODING 208
SWIDTH 693 0
DWIDTH 13 0
BBX 13 14 0 0
BITMAP
0C38
1630
2270
32E0
1FC0
0700
0000
0000
3860
44E0
C4C0
4B80
7F00
1C00
ENDCHAR
STARTCHAR Ntilde
ENCODING 209
SWIDTH 0 0
DWIDTH 0 0
BBX 13 6 -7 17
BITMAP
3038
4830
8860
71C0
7F80
1E00
ENDCHAR
STARTCHAR Ograve
ENCODING 210
SWIDTH 533 0
DWIDTH 10 0
BBX 8 15 2 0
BITMAP
3C
FE
07
07
07
07
0E
0E
0E
0E
0E
0E
1C
1C
1C
ENDCHAR
STARTCHAR Oacute
ENCODING 211
SWIDTH 533 0
DWIDTH 10 0
BBX 16 22 -6 0
BITMAP
3800
4400
C400
4C00
7800
0000
0000
003C
00FE
0007
0007
0007
0007
000E
000E
000E
000E
000E
000E
001C
001C
001C
ENDCHAR
STARTCHAR Ocircumflex
ENCODING 212
SWIDTH 0 0
DWIDTH 0 0
BBX 12 7 -12 16
BITMAP
0F80
1FC0
38E0
6020
FF30
00F0
0010
ENDCHAR
STARTCHAR Otilde
ENCODING 213
SWIDTH 0 0
DWIDTH 0 0
BBX 13 8 -12 16
BITMAP
0038
0FB8
1FF0
3870
6030
FF10
00F0
0010
ENDCHAR
STARTCHAR Odiaeresis
ENCODING 214
SWIDTH 0 0
DWIDTH 0 0
BBX 13 9 -12 16
BITMAP
0030
0048
0FC8
1FF0
3860
6020
FF30
00F0
0010
ENDCHAR
STARTCHAR multiply
ENCODING 215
SWIDTH 0 0
DWIDTH 0 0
BBX 13 9 -11 16
BITMAP
01B8
01B8
07B0
1FF0
3870
6030
FF10
00F0
0010
ENDCHAR
STARTCHAR Ooblique
ENCODING 216
SWIDTH 0 0
DWIDTH 0 0
BBX 7 7 -10 -8
BITMAP
3C
CC
8C
8E
7C
1C
1C
ENDCHAR
STARTCHAR Ugrave
ENCODING 217
SWIDTH 0 0
DWIDTH 0 0
BBX 10 7 -12 -8
BITMAP
73C0
9380
9B80
7380
3780
3F00
3F00
ENDCHAR
STARTCHAR Uacute
ENCODING 218
SWIDTH 0 0
DWIDTH 0 0
BBX 4 4 -7 -6
BITMAP
70
F0
F0
60
ENDCHAR
STARTCHAR Ucircumflex
ENCODING 219
SWIDTH 426 0
DWIDTH 8 0
BBX 0 0 0 0
BITMAP
ENDCHAR
STARTCHAR Udiaeresis
ENCODING 220
SWIDTH 426 0
DWIDTH 8 0
BBX 8 4 0 -4
BITMAP
7F
7F
41
82
ENDCHAR
STARTCHAR ssharp
ENCODING 223
SWIDTH 853 0
DWIDTH 16 0
BBX 17 20 -1 -1
BITMAP
001800
001800
1FFC00
079F00
079B80
07B380
07B380
073700
0F3700
0F3E00
0FF800
0F6E00
0E6700
1E6700
1E6700
1ECF00
1ECE00
3EFC00
FFE000
00C000
ENDCHAR
STARTCHAR agrave
ENCODING 224
SWIDTH 320 0
DWIDTH 6 0
BBX 6 15 0 0
BITMAP
0C
1C
38
38
38
38
38
78
70
70
70
C8
88
90
60
ENDCHAR
STARTCHAR aacute
ENCODING 225
SWIDTH 693 0
DWIDTH 13 0
BBX 14 15 0 0
BITMAP
0C18
1C38
3878
3870
3870
3870
3870
78F0
70E0
70E0
70E0
C990
8910
9120
60C0
ENDCHAR
STARTCHAR acircumflex
ENCODING 226
SWIDTH 480 0
DWIDTH 9 0
BBX 11 25 1 0
BITMAP
1C20
3FC0
E380
7000
3800
1C00
0E00
0E00
0E00
0E00
0E00
1E00
1C00
1C00
1C00
1C00
1C00
3800
3800
3800
3800
6400
4400
4800
3000
ENDCHAR
STARTCHAR atilde
ENCODING 227
SWIDTH 480 0
DWIDTH 9 0
BBX 8 25 1 0
BITMAP
1C
7E
47
B7
97
B7
E7
4E
0E
0E
0E
0E
1C
1C
1C
1C
1C
3C
38
38
38
64
44
6C
30
ENDCHAR
STARTCHAR adiaeresis
ENCODING 228
SWIDTH 586 0
DWIDTH 11 0
BBX 10 25 1 0
BITMAP
C080
67C0
65C0
6DC0
6DC0
6BC0
EB80
7B80
7380
0380
0380
0700
0700
0700
0700
0700
0600
0E00
0E00
0E00
0E00
1B00
1100
1200
0C00
ENDCHAR
STARTCHAR aring
ENCODING 229
SWIDTH 586 0
DWIDTH 11 0
BBX 8 22 2 -7
BITMAP
3C
FF
07
07
07
07
0E
0E
0E
0E
0E
0E
1C
1C
1C
1C
1C
38
38
38
38
38
ENDCHAR
STARTCHAR ae
ENCODING 230
SWIDTH 640 0
DWIDTH 12 0
BBX 10 22 2 -7
BITMAP
1180
1B80
3FC0
6DC0
C1C0
C1C0
C9C0
6980
7180
0380
0380
0380
0380
0300
0300
0700
0700
0700
0700
0600
0600
0E00
ENDCHAR
STARTCHAR ccedilla
ENCODING 231
SWIDTH 0 0
DWIDTH 0 0
BBX 10 8 -8 16
BITMAP
01C0
0380
7F00
4E00
8700
F300
DA00
0400
ENDCHAR
STARTCHAR egrave
ENCODING 232
SWIDTH 0 0
DWIDTH 0 0
BBX 3 5 -1 27
BITMAP
E0
C0
C0
C0
80
ENDCHAR
STARTCHAR eacute
ENCODING 233
SWIDTH 0 0
DWIDTH 0 0
BBX 9 6 -4 27
BITMAP
7380
D700
9600
7C00
7800
6000
ENDCHAR
STARTCHAR ecircumflex
ENCODING 234
SWIDTH 0 0
DWIDTH 0 0
BBX 12 7 -4 29
BITMAP
2730
7F60
D960
89C0
9180
B300
6400
ENDCHAR
STARTCHAR ediaeresis
ENCODING 235
SWIDTH 0 0
DWIDTH 0 0
BBX 7 6 -4 29
BITMAP
18
18
FE
FE
30
30
ENDCHAR
STARTCHAR igrave
ENCODING 236
SWIDTH 0 0
DWIDTH 0 0
BBX 6 7 -2 27
BITMAP
04
08
78
68
D0
D0
70
ENDCHAR
STARTCHAR iacute
ENCODING 237
SWIDTH 0 0
DWIDTH 0 0
BBX 5 5 -5 17
BITMAP
30
C8
88
C8
70
ENDCHAR
STARTCHAR icircumflex
ENCODING 238
SWIDTH 0 0
DWIDTH 0 0
BBX 9 7 -4 18
BITMAP
0780
1800
1800
3C00
C000
C000
F800
ENDCHAR
STARTCHAR idiaeresis
ENCODING 239
SWIDTH 693 0
DWIDTH 13 0
BBX 12 11 1 1
BITMAP
0FC0
1020
2010
4790
9FD0
9FD0
9F90
8F20
4020
60C0
1F00
ENDCHAR
STARTCHAR eth
ENCODING 240
SWIDTH 746 0
DWIDTH 14 0
BBX 11 11 1 0
BITMAP
0F00
38C0
60E0
6060
C060
C060
C060
C0C0
E0C0
6180
1E00
ENDCHAR
STARTCHAR ntilde
ENCODING 241
SWIDTH 693 0
DWIDTH 13 0
BBX 11 11 1 0
BITMAP
0F00
3FC0
71C0
60E0
C460
CE60
CE60
CE40
7E80
3980
0300
ENDCHAR
STARTCHAR ograve
ENCODING 242
SWIDTH 1013 0
DWIDTH 19 0
BBX 17 17 1 0
BITMAP
300000
380000
380000
380000
380000
300000
71E300
73F780
73FF80
771980
760980
64C980
E5C980
E5D900
E3B300
F00600
7FF800
ENDCHAR
STARTCHAR oacute
ENCODING 243
SWIDTH 960 0
DWIDTH 18 0
BBX 16 11 1 0
BITMAP
0F9C
1FFE
31E7
60E3
6043
C843
DC42
DCC6
DC84
798C
3B18
ENDCHAR
STARTCHAR ocircumflex
ENCODING 244
SWIDTH 960 0
DWIDTH 18 0
BBX 18 17 1 0
BITMAP
000080
0001C0
000180
000300
000E00
007800
03E000
0F0000
3C7000
70F800
71B800
E1B000
E18000
E0C000
70F000
7FFC00
3C0E00
ENDCHAR
STARTCHAR otilde
ENCODING 245
SWIDTH 1013 0
DWIDTH 19 0
BBX 17 17 1 0
BITMAP
000080
000080
007080
019080
019100
01FF00
007800
03C000
0F1800
3C7C00
704E00
E0CC00
E04000
E06000
F07800
7FFE00
1E0C00
ENDCHAR
STARTCHAR odiaeresis
ENCODING 246
SWIDTH 693 0
DWIDTH 13 0
BBX 10 17 1 0
BITMAP
4000
E000
7000
7000
3000
3000
3000
6F00
7F80
61C0
00C0
70C0
F0C0
F0C0
E180
6300
3E00
ENDCHAR
STARTCHAR division
ENCODING 247
SWIDTH 1013 0
DWIDTH 19 0
BBX 17 17 1 0
BITMAP
000C00
000E00
000F00
000700
000380
000380
0E6180
3EF180
7FF980
739900
E11B00
C01B00
C41600
CE3600
CE3C00
7C7800
386000
ENDCHAR
STARTCHAR oslash
ENCODING 248
SWIDTH 960 0
DWIDTH 18 0
BBX 17 17 1 0
BITMAP
000180
000180
000180
000180
000300
000300
0F0700
3FC600
3FFC00
707800
600000
C00000
C01000
DC3800
FF3800
73B800
31F000
ENDCHAR
STARTCHAR ugrave
ENCODING 249
SWIDTH 746 0
DWIDTH 14 0
BBX 14 17 1 0
BITMAP
000C
000C
0018
0FF8
1FF0
1000
1800
1FE0
1FC0
3800
6180
E3C0
E3C0
E080
F180
7F00
1C00
ENDCHAR
STARTCHAR uacute
ENCODING 250
SWIDTH 960 0
DWIDTH 18 0
BBX 17 15 1 0
BITMAP
00F980
00FB80
017300
397300
797300
E27300
C27300
C46700
786600
00E600
00E600
00E600
00E600
00CE00
00CC00
ENDCHAR
STARTCHAR ucircumflex
ENCODING 251
SWIDTH 1600 0
DWIDTH 30 0
BBX 28 13 1 0
BITMAP
03800000
0FE00000
18600000
30000000
60000000
60000000
C0084430
C0098820
C019DC20
C0366440
60E44380
3F800000
0F000000
ENDCHAR
STARTCHAR udiaeresis
ENCODING 252
SWIDTH 0 0
DWIDTH 0 0
BBX 7 8 -11 -16
BITMAP
3C
CC
8E
8E
7C
1C
1C
1C
ENDCHAR
STARTCHAR yacute
ENCODING 253
SWIDTH 0 0
DWIDTH 0 0
BBX 10 7 -13 -15
BITMAP
31C0
49C0
8B80
DB80
7380
3F80
3F00
ENDCHAR
STARTCHAR thorn
ENCODING 254
SWIDTH 0 0
DWIDTH 0 0
BBX 4 4 -9 -13
BITMAP
70
F0
F0
60
ENDCHAR
ENDFONT
